<?xml version="1.0" encoding="UTF-8" standalone="no"?>
<!-- Created with Inkscape (http://www.inkscape.org/) -->

<svg
   version="1.1"
   id="svg1"
   width="681.71143"
   height="166.5"
   viewBox="0 0 681.71141 166.5"
   sodipodi:docname="logo_dark.svg"
   inkscape:version="1.3.2 (091e20ef0f, 2023-11-25)"
   xmlns:inkscape="http://www.inkscape.org/namespaces/inkscape"
   xmlns:sodipodi="http://sodipodi.sourceforge.net/DTD/sodipodi-0.dtd"
   xmlns="http://www.w3.org/2000/svg"
   xmlns:svg="http://www.w3.org/2000/svg">
  <defs
     id="defs1">
    <inkscape:path-effect
       effect="gears"
       id="path-effect6"
       is_visible="false"
       lpeversion="1"
       teeth="10"
       phi="5"
       min_radius="5" />
    <inkscape:path-effect
       effect="ruler"
       id="path-effect5"
       is_visible="true"
       lpeversion="1"
       unit="px"
       mark_distance="10"
       mark_length="0"
       minor_mark_length="12"
       major_mark_steps="20"
       shift="0"
       offset="0"
       mark_dir="left"
       border_marks="both" />
    <inkscape:path-effect
       effect="ruler"
       id="path-effect5-9"
       is_visible="true"
       lpeversion="1"
       unit="px"
       mark_distance="10"
       mark_length="0"
       minor_mark_length="12"
       major_mark_steps="20"
       shift="0"
       offset="0"
       mark_dir="left"
       border_marks="both" />
    <inkscape:path-effect
       effect="ruler"
       id="path-effect5-3"
       is_visible="true"
       lpeversion="1"
       unit="px"
       mark_distance="10"
       mark_length="0"
       minor_mark_length="12"
       major_mark_steps="20"
       shift="0"
       offset="0"
       mark_dir="left"
       border_marks="both" />
    <filter
       style="color-interpolation-filters:sRGB;"
       inkscape:label="Invert"
       id="filter7"
       x="0"
       y="0"
       width="1"
       height="1.125">
      <feColorMatrix
         values="-1 0 0 0 1 0 -1 0 0 1 0 0 -1 0 1 -0.21 -0.72 -0.07 2 0 "
         result="color2"
         id="feColorMatrix7" />
    </filter>
    <filter
       style="color-interpolation-filters:sRGB;"
       inkscape:label="Invert"
       id="filter8"
       x="0"
       y="0"
       width="1"
       height="1.125">
      <feColorMatrix
         values="-1 0 0 0 1 0 -1 0 0 1 0 0 -1 0 1 -0.21 -0.72 -0.07 2 0 "
         result="color2"
         id="feColorMatrix8" />
    </filter>
    <filter
       style="color-interpolation-filters:sRGB;"
       inkscape:label="Invert"
       id="filter9"
       x="0"
       y="0"
       width="1"
       height="1">
      <feColorMatrix
         values="-1 0 0 0 1 0 -1 0 0 1 0 0 -1 0 1 -0.21 -0.72 -0.07 2 0 "
         result="color2"
         id="feColorMatrix9" />
    </filter>
    <filter
       style="color-interpolation-filters:sRGB;"
       inkscape:label="Invert"
       id="filter10"
       x="0"
       y="0"
       width="1"
       height="1">
      <feColorMatrix
         values="-1 0 0 0 1 0 -1 0 0 1 0 0 -1 0 1 -0.21 -0.72 -0.07 2 0 "
         result="color2"
         id="feColorMatrix10" />
    </filter>
    <filter
       style="color-interpolation-filters:sRGB;"
       inkscape:label="Invert"
       id="filter11"
       x="0"
       y="0"
       width="1"
       height="1">
      <feColorMatrix
         values="-1 0 0 0 1 0 -1 0 0 1 0 0 -1 0 1 -0.21 -0.72 -0.07 2 0 "
         result="color2"
         id="feColorMatrix11" />
    </filter>
    <filter
       style="color-interpolation-filters:sRGB;"
       inkscape:label="Invert"
       id="filter12">
      <feColorMatrix
         values="-1 0 0 0 1 0 -1 0 0 1 0 0 -1 0 1 -0.21 -0.72 -0.07 2 0 "
         result="color2"
         id="feColorMatrix12" />
    </filter>
    <filter
       style="color-interpolation-filters:sRGB;"
       inkscape:label="Invert"
       id="filter13">
      <feColorMatrix
         values="-1 0 0 0 1 0 -1 0 0 1 0 0 -1 0 1 -0.21 -0.72 -0.07 2 0 "
         result="color2"
         id="feColorMatrix13" />
    </filter>
  </defs>
  <sodipodi:namedview
     id="namedview1"
     pagecolor="#ffffff"
     bordercolor="#666666"
     borderopacity="1.0"
     inkscape:showpageshadow="2"
     inkscape:pageopacity="0.0"
     inkscape:pagecheckerboard="0"
     inkscape:deskcolor="#d1d1d1"
     inkscape:zoom="1.5685687"
     inkscape:cx="378.68918"
     inkscape:cy="139.61773"
     inkscape:window-width="1920"
     inkscape:window-height="1014"
     inkscape:window-x="0"
     inkscape:window-y="0"
     inkscape:window-maximized="1"
     inkscape:current-layer="g5" />
  <g
     inkscape:groupmode="layer"
     inkscape:label="Image"
     id="g1"
     transform="translate(4.7822514,54.954833)">
    <g
       id="g5">
      <text
         xml:space="preserve"
         style="font-weight:300;font-stretch:condensed;font-size:42.6667px;line-height:1.25;font-family:'Open Sans';-inkscape-font-specification:'Open Sans Light Condensed';fill:#1a1a1a;stroke:#1a1a1a;filter:url(#filter13)"
         x="92.838318"
         y="33.352821"
         id="text1"><tspan
           sodipodi:role="line"
           id="tspan1"
           x="92.838318"
           y="33.352821" /></text>
      <text
         xml:space="preserve"
         style="font-weight:300;font-stretch:condensed;font-size:53.3333px;line-height:1.25;font-family:'Open Sans';-inkscape-font-specification:'Open Sans Light Condensed';fill:#000000;stroke:none;filter:url(#filter12)"
         x="95.733505"
         y="54.666656"
         id="text2"><tspan
           sodipodi:role="line"
           id="tspan2"
           x="95.733505"
           y="54.666656"
           style="font-style:normal;font-variant:normal;font-weight:bold;font-stretch:normal;font-size:53.3333px;font-family:'Space Mono';-inkscape-font-specification:'Space Mono Bold';fill:#000000;stroke:none" /></text>
      <path
         id="rect4"
         style="stroke-width:0.99046;filter:url(#filter11)"
         d="m 341.42044,-44.269814 h 174 V 100.95319 h -174 z" />
      <g
         id="text3"
         style="font-size:128px;filter:url(#filter10)"
         aria-label="APPR AI SE">
        <path
           style="font-weight:bold;font-family:'Space Mono';-inkscape-font-specification:'Space Mono Bold';letter-spacing:12px"
           d="m 47.697749,41.959519 h -30.464 l -4.352,19.2 H -4.7822514 l 21.3760004,-89.6 h 31.744 l 21.376,89.6 h -17.664 z m -26.88,-16.128 h 23.168 l -10.368,-45.824 h -2.304 z m 88.927941,1.536 v 33.792 H 92.849686 v -89.6 h 35.072004 q 6.912,0 12.032,2.304 5.12,2.176 8.448,5.888 3.456,3.584 5.12,8.32 1.792,4.6080002 1.792,9.4720002 v 3.072 q 0,4.992 -1.792,9.8559998 -1.664,4.736 -5.12,8.576 -3.328,3.712 -8.448,6.016 -5.12,2.304 -12.032,2.304 z m 0,-16.128 h 16.512 q 5.632,0 8.832,-3.0719998 3.328,-3.072 3.328,-7.936 v -1.536 q 0,-4.864 -3.328,-7.936 -3.2,-3.0720002 -8.832,-3.0720002 h -16.512 z m 90.33593,16.128 v 33.792 h -16.896 v -89.6 h 35.072 q 6.912,0 12.032,2.304 5.12,2.176 8.448,5.888 3.456,3.584 5.12,8.32 1.792,4.6080002 1.792,9.4720002 v 3.072 q 0,4.992 -1.792,9.8559998 -1.664,4.736 -5.12,8.576 -3.328,3.712 -8.448,6.016 -5.12,2.304 -12.032,2.304 z m 0,-16.128 h 16.512 q 5.632,0 8.832,-3.0719998 3.328,-3.072 3.328,-7.936 v -1.536 q 0,-4.864 -3.328,-7.936 -3.2,-3.0720002 -8.832,-3.0720002 h -16.512 z m 133.72794,49.92 h -16.896 v -26.88 q 0,-3.072 -1.664,-4.992 -1.536,-1.92 -5.248,-1.92 h -19.456 v 33.792 h -16.896 v -89.6 h 34.304 q 6.912,0 12.16,1.92 5.248,1.92 8.704,5.376 3.584,3.328 5.376,7.808 1.92,4.4800002 1.92,9.6000002 v 3.072 q 0,5.504 -2.944,10.368 -2.944,4.7359998 -9.088,7.2959998 v 2.304 q 4.48,0.512 7.04,3.456 2.688,2.944 2.688,7.424 z m -43.264,-49.92 h 16.128 q 6.144,0 9.344,-2.8159998 3.2,-2.944 3.2,-8.192 v -1.536 q 0,-4.48 -3.2,-7.68 -3.2,-3.3280002 -9.344,-3.3280002 h -16.128 z"
           id="path4" />
        <path
           style="font-weight:bold;font-family:'Space Mono';-inkscape-font-specification:'Space Mono Bold';fill:#ffffff"
           d="m 407.37744,41.959519 h -30.464 l -4.352,19.2 h -17.664 l 21.376,-89.6 h 31.744 l 21.376,89.6 h -17.664 z m -26.88,-16.128 h 23.168 l -10.368,-45.824 h -2.304 z m 60.03193,-54.272 h 59.904 v 16.128 h -21.504 v 57.344 h 21.504 v 16.128 h -59.904 v -16.128 h 21.504 v -57.344 h -21.504 z"
           id="path6" />
        <path
           style="font-weight:bold;font-family:'Space Mono';-inkscape-font-specification:'Space Mono Bold';letter-spacing:12px"
           d="m 572.51325,-1.0484808 q 0,-5.376 -4.224,-9.3440002 -4.096,-3.968 -11.648,-3.968 -6.4,0 -10.112,2.688 -3.712,2.5600002 -3.712,7.0400002 0,2.304 0.896,4.224 0.896,1.792 3.072,3.328 2.304,1.408 5.888,2.56 3.712,1.152 9.344,2.176 14.08,2.5599998 21.504,8.5759998 7.424,6.016 7.424,17.792 v 1.536 q 0,6.272 -2.304,11.392 -2.176,4.992 -6.4,8.576 -4.224,3.584 -10.24,5.504 -6.016,1.92 -13.568,1.92 -8.832,0 -15.616,-2.432 -6.656,-2.56 -11.136,-6.912 -4.48,-4.48 -6.784,-10.368 -2.304,-6.016 -2.304,-13.056 v -3.84 h 16.896 v 3.072 q 0,8.064 4.608,12.928 4.736,4.736 14.592,4.736 7.68,0 11.392,-3.328 3.712,-3.328 3.712,-7.936 0,-2.176 -0.768,-4.096 -0.768,-2.048 -2.688,-3.584 -1.92,-1.664 -5.248,-2.944 -3.328,-1.28 -8.448,-2.176 -6.784,-1.152 -12.416,-2.944 -5.632,-1.92 -9.856,-4.992 -4.096,-3.072 -6.4,-7.6799998 -2.304,-4.608 -2.304,-11.264 v -0.768 q 0,-5.5040002 2.176,-10.1120002 2.304,-4.736 6.272,-8.192 4.096,-3.456 9.728,-5.376 5.76,-1.92 12.8,-1.92 7.936,0 14.08,2.304 6.144,2.176 10.24,6.016 4.224,3.84 6.272,8.832 2.176,4.9920002 2.176,10.4960002 v 4.608 h -16.896 z m 46.30394,-27.3920002 h 56.576 v 16.128 h -39.68 V 8.1675192 h 38.144 V 24.295519 h -38.144 v 20.736 h 41.216 v 16.128 h -58.112 z"
           id="path7" />
      </g>
      <g
         id="text5"
         style="font-size:32px;font-family:'Space Mono';-inkscape-font-specification:'Space Mono';filter:url(#filter9)"
         aria-label="Enabling Auditable AI">
        <path
           style="font-style:italic;font-weight:bold;-inkscape-font-specification:'Space Mono Bold Italic'"
           d="m 169.00843,95.405871 4.672,-22.016 h 13.28 v 4.032 h -9.92 l -1.088,5.12 h 8.672 v 4.032 h -9.536 l -1.088,5.184 h 9.44 v 4.032 h -14.432 z m 31.13599,-8.832 q 0.128,-0.608 0.128,-1.024 0,-1.152 -0.672,-1.792 -0.672,-0.64 -1.824,-0.64 -1.44,0 -2.464,1.024 -1.024,1.024 -1.376,2.752 l -1.888,8.896 h -4.032 l 3.36,-15.872 h 3.872 l -0.544,2.56 h 0.576 q 0.768,-1.6 2.016,-2.304 1.28,-0.704 2.816,-0.704 2.016,0 3.2,1.216 1.216,1.216 1.216,3.424 0,0.512 -0.064,0.96 -0.064,0.416 -0.16,0.928 l -1.28,5.984 0.32,0.224 1.376,-0.96 2.016,3.008 -1.728,1.152 q -1.216,0.832 -2.592,0.832 -0.704,0 -1.344,-0.256 -0.64,-0.224 -1.12,-0.64 -0.48,-0.448 -0.768,-1.056 -0.288,-0.64 -0.288,-1.44 0,-0.416 0.096,-0.96 z m 22.78398,5.408 0.32,0.224 1.536,-1.088 2.016,3.008 -1.888,1.28 q -1.248,0.832 -2.624,0.832 -1.216,0 -2.176,-0.672 -0.96,-0.672 -1.216,-1.888 h -0.576 q -0.288,0.544 -0.672,1.024 -0.384,0.448 -0.96,0.8 -0.544,0.32 -1.312,0.512 -0.736,0.224 -1.76,0.224 -1.248,0 -2.304,-0.48 -1.056,-0.512 -1.856,-1.376 -0.768,-0.896 -1.216,-2.08 -0.448,-1.184 -0.448,-2.592 0,-2.144 0.576,-4 0.576,-1.856 1.664,-3.232 1.088,-1.408 2.656,-2.208 1.6,-0.8 3.584,-0.8 1.76,0 2.784,0.704 1.024,0.704 1.376,1.856 h 0.576 l 0.448,-2.112 h 4.032 z m -7.744,0.416 q 1.152,0 2.048,-0.448 0.896,-0.48 1.472,-1.248 0.608,-0.768 0.928,-1.792 0.32,-1.056 0.32,-2.208 0,-1.504 -0.864,-2.432 -0.864,-0.96 -2.304,-0.96 -1.152,0 -2.048,0.48 -0.896,0.448 -1.504,1.216 -0.608,0.768 -0.928,1.824 -0.32,1.024 -0.32,2.176 0,1.344 0.768,2.368 0.8,1.024 2.432,1.024 z m 21.50399,-19.456 -1.984,9.28 h 0.576 q 1.664,-2.752 5.024,-2.752 2.464,0 3.904,1.664 1.44,1.664 1.44,4.416 0,2.464 -0.704,4.448 -0.672,1.984 -1.856,3.392 -1.184,1.376 -2.784,2.112 -1.6,0.736 -3.392,0.736 -1.056,0 -1.792,-0.224 -0.704,-0.224 -1.184,-0.608 -0.448,-0.384 -0.704,-0.864 -0.256,-0.512 -0.352,-1.056 h -0.576 l -0.48,2.304 h -4 l 4.8,-22.848 z m -0.288,19.456 q 1.152,-0.032 2.08,-0.48 0.928,-0.48 1.6,-1.28 0.672,-0.8 1.024,-1.824 0.352,-1.056 0.352,-2.24 0,-1.504 -0.896,-2.368 -0.864,-0.896 -2.368,-0.896 -1.12,0 -2.016,0.448 -0.864,0.448 -1.504,1.248 -0.64,0.768 -0.992,1.856 -0.32,1.056 -0.32,2.272 0,1.536 0.8,2.4 0.8,0.864 2.24,0.864 z m 22.30398,3.008 q -0.64,0.448 -1.312,0.64 -0.672,0.192 -1.312,0.192 -0.704,0 -1.344,-0.256 -0.64,-0.224 -1.12,-0.64 -0.48,-0.448 -0.768,-1.056 -0.256,-0.64 -0.256,-1.408 0,-0.576 0.128,-1.12 l 3.488,-14.56 -0.32,-0.224 -4.288,2.944 -2.016,-3.008 4.64,-3.136 q 0.64,-0.448 1.312,-0.64 0.672,-0.192 1.312,-0.192 0.704,0 1.344,0.256 0.64,0.224 1.12,0.672 0.48,0.416 0.736,1.056 0.288,0.608 0.288,1.376 0,0.512 -0.128,1.12 l -3.488,14.56 0.32,0.224 4.288,-2.944 2.016,3.008 -4.64,3.136 z m 19.80799,0 q -0.64,0.448 -1.312,0.64 -0.672,0.192 -1.312,0.192 -0.704,0 -1.344,-0.256 -0.64,-0.224 -1.12,-0.64 -0.48,-0.448 -0.768,-1.056 -0.256,-0.64 -0.256,-1.408 0,-0.608 0.128,-1.12 l 1.92,-8.032 -0.32,-0.224 -4.288,2.944 -2.016,-3.008 4.64,-3.136 q 0.64,-0.448 1.312,-0.64 0.672,-0.192 1.312,-0.192 0.704,0 1.344,0.256 0.64,0.224 1.12,0.672 0.48,0.416 0.736,1.056 0.288,0.608 0.288,1.376 0,0.608 -0.128,1.12 l -1.92,8.032 0.32,0.224 4.288,-2.944 2.016,3.008 z m 2.784,-20.192 q 0,0.64 -0.256,1.216 -0.224,0.544 -0.64,0.96 -0.416,0.384 -0.992,0.64 -0.544,0.224 -1.152,0.224 -0.64,0 -1.184,-0.224 -0.544,-0.256 -0.96,-0.64 -0.416,-0.416 -0.672,-0.96 -0.224,-0.576 -0.224,-1.216 0,-0.64 0.224,-1.184 0.256,-0.576 0.672,-0.96 0.416,-0.416 0.96,-0.64 0.544,-0.256 1.184,-0.256 0.608,0 1.152,0.256 0.576,0.224 0.992,0.64 0.416,0.384 0.64,0.96 0.256,0.544 0.256,1.184 z m 16.76798,11.36 q 0.128,-0.608 0.128,-1.024 0,-1.152 -0.672,-1.792 -0.672,-0.64 -1.824,-0.64 -1.44,0 -2.464,1.024 -1.024,1.024 -1.376,2.752 l -1.888,8.896 h -4.032 l 3.36,-15.872 h 3.872 l -0.544,2.56 h 0.576 q 0.768,-1.6 2.016,-2.304 1.28,-0.704 2.816,-0.704 2.016,0 3.2,1.216 1.216,1.216 1.216,3.424 0,0.512 -0.064,0.96 -0.064,0.416 -0.16,0.928 l -1.28,5.984 0.32,0.224 1.376,-0.96 2.016,3.008 -1.728,1.152 q -1.216,0.832 -2.592,0.832 -0.704,0 -1.344,-0.256 -0.64,-0.224 -1.12,-0.64 -0.48,-0.448 -0.768,-1.056 -0.288,-0.64 -0.288,-1.44 0,-0.416 0.096,-0.96 z m 19.74398,6.912 h -0.576 q -0.352,0.544 -0.8,1.056 -0.448,0.48 -1.088,0.864 -0.64,0.384 -1.536,0.608 -0.896,0.224 -2.08,0.224 -1.152,0 -2.176,-0.384 -0.992,-0.384 -1.728,-1.152 -0.736,-0.768 -1.184,-1.92 -0.416,-1.184 -0.416,-2.752 0,-1.984 0.576,-3.872 0.608,-1.92 1.76,-3.392 1.152,-1.504 2.848,-2.4 1.728,-0.896 4,-0.896 1.952,0 2.944,0.768 1.024,0.736 1.28,1.984 h 0.576 l 0.48,-2.304 h 4.032 l -4.192,19.776 q -0.256,1.087999 -1.088,1.791999 -0.832,0.704 -1.92,0.704 h -9.856 v -3.839999 h 8.256 q 0.864,0 1.056,-0.96 z m -4,-1.088 q 1.152,0 2.112,-0.48 0.992,-0.48 1.696,-1.28 0.736,-0.8 1.12,-1.856 0.416,-1.056 0.416,-2.208 0,-1.536 -0.896,-2.4 -0.896,-0.864 -2.528,-0.864 -1.216,0 -2.208,0.48 -0.992,0.48 -1.696,1.28 -0.672,0.768 -1.056,1.824 -0.384,1.024 -0.384,2.112 0,1.696 0.928,2.56 0.96,0.832 2.496,0.832 z"
           id="path1" />
        <path
           style="font-style:italic;font-weight:bold;-inkscape-font-specification:'Space Mono Bold Italic';letter-spacing:-1px;fill:#ffffff"
           d="m 357.10429,90.989871 h -7.392 l -2.048,4.8 h -4.512 l 9.856,-22.4 h 7.808 l 0.544,22.4 h -4.192 z m -5.696,-4.032 h 5.632 l -0.16,-11.456 h -0.576 z m 18.99999,-7.04 -1.984,9.216 q -0.128,0.544 -0.128,1.056 0,1.216 0.672,1.824 0.672,0.576 1.792,0.576 1.696,0 2.592,-1.088 0.928,-1.12 1.376,-3.136 l 1.792,-8.448 h 4.032 l -2.624,12.096 0.352,0.192 1.152,-0.832 2.016,2.944 -1.504,1.088 q -0.608,0.448 -1.28,0.64 -0.64,0.192 -1.28,0.192 -1.312,0 -2.304,-0.736 -0.992,-0.768 -1.12,-2.208 h -0.576 q -0.704,1.632 -1.92,2.304 -1.184,0.64 -2.688,0.64 -2.08,0 -3.392,-1.248 -1.312,-1.28 -1.312,-3.552 0,-0.8 0.192,-1.728 l 2.112,-9.792 z m 26.77598,12.064 0.32,0.224 1.728,-1.216 2.016,3.008 -2.08,1.408 q -0.672,0.448 -1.344,0.64 -0.64,0.192 -1.28,0.192 -1.216,0 -2.176,-0.672 -0.96,-0.672 -1.216,-1.888 h -0.576 q -0.288,0.544 -0.672,1.024 -0.384,0.448 -0.96,0.8 -0.544,0.32 -1.312,0.512 -0.736,0.224 -1.76,0.224 -1.248,0 -2.304,-0.48 -1.056,-0.512 -1.856,-1.376 -0.768,-0.896 -1.216,-2.08 -0.448,-1.184 -0.448,-2.592 0,-2.144 0.576,-4 0.576,-1.856 1.664,-3.232 1.088,-1.408 2.656,-2.208 1.6,-0.8 3.584,-0.8 1.696,0 2.752,0.768 1.056,0.768 1.376,1.984 h 0.576 l 1.952,-9.28 h 4.064 l -1.984,9.28 z m -7.744,0.416 q 1.152,0 2.048,-0.448 0.896,-0.48 1.472,-1.248 0.608,-0.768 0.928,-1.792 0.32,-1.056 0.32,-2.208 0,-1.504 -0.864,-2.432 -0.864,-0.96 -2.304,-0.96 -1.152,0 -2.048,0.48 -0.896,0.448 -1.504,1.216 -0.608,0.768 -0.928,1.824 -0.32,1.024 -0.32,2.176 0,1.344 0.768,2.368 0.8,1.024 2.432,1.024 z m 23.15999,3.008 q -0.64,0.448 -1.312,0.64 -0.672,0.192 -1.312,0.192 -0.704,0 -1.344,-0.256 -0.64,-0.224 -1.12,-0.64 -0.48,-0.448 -0.768,-1.056 -0.256,-0.64 -0.256,-1.408 0,-0.608 0.128,-1.12 l 1.92,-8.032 -0.32,-0.224 -4.288,2.944 -2.016,-3.008 4.64,-3.136 q 0.64,-0.448 1.312,-0.64 0.672,-0.192 1.312,-0.192 0.704,0 1.344,0.256 0.64,0.224 1.12,0.672 0.48,0.416 0.736,1.056 0.288,0.608 0.288,1.376 0,0.608 -0.128,1.12 l -1.92,8.032 0.32,0.224 4.288,-2.944 2.016,3.008 z m 2.784,-20.192 q 0,0.64 -0.256,1.216 -0.224,0.544 -0.64,0.96 -0.416,0.384 -0.992,0.64 -0.544,0.224 -1.152,0.224 -0.64,0 -1.184,-0.224 -0.544,-0.256 -0.96,-0.64 -0.416,-0.416 -0.672,-0.96 -0.224,-0.576 -0.224,-1.216 0,-0.64 0.224,-1.184 0.256,-0.576 0.672,-0.96 0.416,-0.416 0.96,-0.64 0.544,-0.256 1.184,-0.256 0.608,0 1.152,0.256 0.576,0.224 0.992,0.64 0.416,0.384 0.64,0.96 0.256,0.544 0.256,1.184 z m 10.61598,8.544 h -4.48 v -3.84 h 5.312 l 1.472,-6.976 h 4.032 l -1.472,6.976 h 5.504 v 3.84 h -6.336 l -1.792,8.224 0.32,0.224 4.288,-2.944 2.016,3.008 -4.64,3.136 q -1.216,0.832 -2.592,0.832 -0.704,0 -1.344,-0.256 -0.64,-0.224 -1.12,-0.672 -0.48,-0.448 -0.768,-1.088 -0.288,-0.64 -0.288,-1.44 0,-0.256 0.032,-0.448 0.032,-0.224 0.096,-0.576 z m 26.93599,8.224 0.32,0.224 1.536,-1.088 2.016,3.008 -1.888,1.28 q -1.248,0.832 -2.624,0.832 -1.216,0 -2.176,-0.672 -0.96,-0.672 -1.216,-1.888 h -0.576 q -0.288,0.544 -0.672,1.024 -0.384,0.448 -0.96,0.8 -0.544,0.32 -1.312,0.512 -0.736,0.224 -1.76,0.224 -1.248,0 -2.304,-0.48 -1.056,-0.512 -1.856,-1.376 -0.768,-0.896 -1.216,-2.08 -0.448,-1.184 -0.448,-2.592 0,-2.144 0.576,-4 0.576,-1.856 1.664,-3.232 1.088,-1.408 2.656,-2.208 1.6,-0.8 3.584,-0.8 1.76,0 2.784,0.704 1.024,0.704 1.376,1.856 h 0.576 l 0.448,-2.112 h 4.032 z m -7.744,0.416 q 1.152,0 2.048,-0.448 0.896,-0.48 1.472,-1.248 0.608,-0.768 0.928,-1.792 0.32,-1.056 0.32,-2.208 0,-1.504 -0.864,-2.432 -0.864,-0.96 -2.304,-0.96 -1.152,0 -2.048,0.48 -0.896,0.448 -1.504,1.216 -0.608,0.768 -0.928,1.824 -0.32,1.024 -0.32,2.176 0,1.344 0.768,2.368 0.8,1.024 2.432,1.024 z m 20.50398,-19.456 -1.984,9.28 h 0.576 q 1.664,-2.752 5.024,-2.752 2.464,0 3.904,1.664 1.44,1.664 1.44,4.416 0,2.464 -0.704,4.448 -0.672,1.984 -1.856,3.392 -1.184,1.376 -2.784,2.112 -1.6,0.736 -3.392,0.736 -1.056,0 -1.792,-0.224 -0.704,-0.224 -1.184,-0.608 -0.448,-0.384 -0.704,-0.864 -0.256,-0.512 -0.352,-1.056 h -0.576 l -0.48,2.304 h -4 l 4.8,-22.848 z m -0.288,19.456 q 1.152,-0.032 2.08,-0.48 0.928,-0.48 1.6,-1.28 0.672,-0.8 1.024,-1.824 0.352,-1.056 0.352,-2.24 0,-1.504 -0.896,-2.368 -0.864,-0.896 -2.368,-0.896 -1.12,0 -2.016,0.448 -0.864,0.448 -1.504,1.248 -0.64,0.768 -0.992,1.856 -0.32,1.056 -0.32,2.272 0,1.536 0.8,2.4 0.8,0.864 2.24,0.864 z m 21.30398,3.008 q -0.64,0.448 -1.312,0.64 -0.672,0.192 -1.312,0.192 -0.704,0 -1.344,-0.256 -0.64,-0.224 -1.12,-0.64 -0.48,-0.448 -0.768,-1.056 -0.256,-0.64 -0.256,-1.408 0,-0.576 0.128,-1.12 l 3.488,-14.56 -0.32,-0.224 -4.288,2.944 -2.016,-3.008 4.64,-3.136 q 0.64,-0.448 1.312,-0.64 0.672,-0.192 1.312,-0.192 0.704,0 1.344,0.256 0.64,0.224 1.12,0.672 0.48,0.416 0.736,1.056 0.288,0.608 0.288,1.376 0,0.512 -0.128,1.12 l -3.488,14.56 0.32,0.224 4.288,-2.944 2.016,3.008 -4.64,3.136 z m 11.92799,-6.24 q -0.064,0.256 -0.064,0.544 0,1.152 0.864,1.92 0.896,0.768 2.336,0.768 1.504,0 2.4,-0.544 0.896,-0.544 1.376,-1.28 l 3.2,2.016 q -0.384,0.64 -1.024,1.28 -0.608,0.64 -1.536,1.184 -0.896,0.512 -2.144,0.832 -1.216,0.352 -2.848,0.352 -1.472,0 -2.72,-0.448 -1.216,-0.48 -2.112,-1.28 -0.864,-0.832 -1.376,-1.952 -0.48,-1.152 -0.48,-2.528 0,-2.176 0.64,-4.096 0.672,-1.92 1.92,-3.36 1.248,-1.44 3.072,-2.272 1.824,-0.832 4.192,-0.832 1.664,0 2.88,0.544 1.248,0.512 2.048,1.408 0.8,0.864 1.184,1.984 0.416,1.12 0.416,2.304 0,0.384 -0.064,0.8 -0.032,0.384 -0.16,1.024 l -0.352,1.632 z m 5.056,-6.048 q -1.504,0 -2.624,0.768 -1.088,0.736 -1.632,1.824 h 7.488 q 0,-1.216 -0.768,-1.888 -0.736,-0.704 -2.464,-0.704 z"
           id="path2" />
        <path
           style="font-style:italic;font-weight:bold;-inkscape-font-specification:'Space Mono Bold Italic'"
           d="m 543.94414,90.989871 h -7.392 l -2.048,4.8 h -4.512 l 9.856,-22.4 h 7.808 l 0.544,22.4 h -4.192 z m -5.696,-4.032 h 5.632 l -0.16,-11.456 h -0.576 z m 16.86398,-13.568 h 14.592 v 4.032 h -5.184 l -3.04,14.336 h 5.184 v 4.032 h -14.592 v -4.032 h 5.184 l 3.04,-14.336 h -5.184 z"
           id="path3" />
      </g>
      <path
         style="fill:#808080;stroke:#000000;stroke-width:3;stroke-dasharray:none;stroke-opacity:1;filter:url(#filter8)"
         d="m 344.42044,-78.95483 h 155.60837 m -155.60837,0 z m 10,0 v -12 m 10,12 v -12 m 10,12 v -12 m 10,12 v -12 m 10,12 v -12 m 10,12 v -12 m 10,12 v -12 m 10,12 v -12 m 10,12 v -12 m 10,12 v -12 m 10,12 v -12 m 10,12 v -12 m 10,12 v -12 m 10,12 v -12 m 10,12 v -12 m 5.60837,12 z"
         id="path5"
         transform="matrix(1.0759101,0,0,1,-26.76044,35.999997)" />
      <path
         style="fill:#808080;stroke:#000000;stroke-width:3;stroke-dasharray:none;stroke-opacity:1;filter:url(#filter7)"
         d="m 344.42044,-78.95483 h 155.60837 m -155.60837,0 z m 10,0 v -12 m 10,12 v -12 m 10,12 v -12 m 10,12 v -12 m 10,12 v -12 m 10,12 v -12 m 10,12 v -12 m 10,12 v -12 m 10,12 v -12 m 10,12 v -12 m 10,12 v -12 m 10,12 v -12 m 10,12 v -12 m 10,12 v -12 m 10,12 v -12 m 5.60837,12 z"
         id="path5-6"
         transform="matrix(1.0759101,0,0,-1,-28.34768,20.59034)" />
    </g>
  </g>
</svg>
